<?xml version="1.0" encoding="utf-8"?>
<!-- Generator: Adobe Illustrator 27.5.0, SVG Export Plug-In . SVG Version: 6.00 Build 0)  -->
<svg version="1.1" id="Layer_1" xmlns="http://www.w3.org/2000/svg" xmlns:xlink="http://www.w3.org/1999/xlink" x="0px" y="0px"
	 viewBox="0 0 1300 1300" style="enable-background:new 0 0 1300 1300;" xml:space="preserve">
<g id="XMLID_5_">
	<g id="XMLID_4_">
		<g id="XMLID_2_">
			
				<linearGradient id="XMLID_00000025444423478495328210000012611441712949214885_" gradientUnits="userSpaceOnUse" x1="606.7335" y1="721.3552" x2="606.7335" y2="228.8605">
				<stop  offset="0.0051" style="stop-color:#004B47"/>
				<stop  offset="0.3061" style="stop-color:#00A775"/>
				<stop  offset="1" style="stop-color:#80C342"/>
			</linearGradient>
			<path id="XMLID_1_" style="fill:url(#XMLID_00000025444423478495328210000012611441712949214885_);" d="M394.775,721.355h122.805
				c1.904,0,3.631-1.12,4.401-2.861c13.458-30.398,138.381-296.42,464.888-480.627c4.313-2.433,2.59-9.007-2.361-9.007H705.614
				c-1.21,0-2.374,0.455-3.263,1.274c-16.875,15.543-182.702,170.752-246.773,326.044c-1.574,3.815-6.908,3.997-8.75,0.304
				c-14.191-28.457-57.526-112.121-95.018-150.772c-0.901-0.929-2.145-1.441-3.439-1.441H228.968c-4.273,0-6.435,5.147-3.436,8.19
				c29.616,30.057,129.44,141.147,164.537,305.074C390.545,719.758,392.5,721.355,394.775,721.355z"/>
			
				<linearGradient id="XMLID_00000056429455249570609520000013771202056868091299_" gradientUnits="userSpaceOnUse" x1="598.0961" y1="701" x2="598.0961" y2="234">
				<stop  offset="0" style="stop-color:#6CC071;stop-opacity:0.3"/>
				<stop  offset="0.6735" style="stop-color:#B2D235;stop-opacity:0.5"/>
				<stop  offset="1" style="stop-color:#FFF9AE;stop-opacity:0.8"/>
			</linearGradient>
			<path id="XMLID_3_" style="fill:url(#XMLID_00000056429455249570609520000013771202056868091299_);" d="M397.917,701
				c-32.749-144-114.875-248-153.919-292h97.85c36.12,39,78.246,120.805,90.497,145.373c2.975,5.967,8.963,9.755,15.626,9.754
				c7.098-0.001,13.432-4.157,16.137-10.715C524.901,406.068,678.971,259,705.522,234h246.672
				c-127.66,76-237.99,172.149-328.25,286.411C555.036,607.643,519.575,679,509.369,701H397.917z"/>
		</g>
		
			<linearGradient id="XMLID_00000114760008711842740640000009050107814171259827_" gradientUnits="userSpaceOnUse" x1="439.644" y1="527.5662" x2="439.644" y2="422.9484">
			<stop  offset="0" style="stop-color:#80C342"/>
			<stop  offset="0.5306" style="stop-color:#00A775"/>
			<stop  offset="0.9949" style="stop-color:#004B47"/>
		</linearGradient>
		<path id="XMLID_7_" style="fill:url(#XMLID_00000114760008711842740640000009050107814171259827_);" d="M474.239,474.072
			c-9.208-11.951-18.395-23.177-27.372-32.432c-1.436-1.48-3.418-2.64-5.48-2.64h-36.338c15.998,23,31.567,47.598,46.122,72.026
			C458.504,498.699,466.199,486.607,474.239,474.072z"/>
		
			<linearGradient id="XMLID_00000134958614630269905110000014872664083611491219_" gradientUnits="userSpaceOnUse" x1="817.2474" y1="734.8701" x2="817.2474" y2="298.0008">
			<stop  offset="0" style="stop-color:#80C342"/>
			<stop  offset="0.6939" style="stop-color:#00A775"/>
			<stop  offset="0.9949" style="stop-color:#004B47"/>
		</linearGradient>
		<path id="XMLID_8_" style="fill:url(#XMLID_00000134958614630269905110000014872664083611491219_);" d="M1070.563,298H950.009
			c-119.586,72-222.977,162.12-307.636,269.29c-38.848,49.179-66.129,92.446-83.74,123.549c11.69-8.844,22.567-18.913,32.411-30.104
			c164.298-186.778,409.613-316.841,481.873-352.765C1077.923,305.482,1076.154,298,1070.563,298z"/>
	</g>
	<g id="XMLID_38_">
		<path id="XMLID_39_" style="fill:#004B47;" d="M240.789,788.156h24.837v135.473h40.867v22.578h-65.704V788.156z"/>
		<path id="XMLID_41_" style="fill:#004B47;" d="M315.3,826.088c0-25.289,13.322-39.739,37.706-39.739
			c24.385,0,37.707,14.45,37.707,39.739v82.187c0,25.289-13.322,39.739-37.707,39.739c-24.385,0-37.706-14.451-37.706-39.739
			V826.088z M340.136,909.855c0,11.289,4.967,15.579,12.87,15.579c7.903,0,12.87-4.29,12.87-15.579v-85.347
			c0-11.29-4.967-15.581-12.87-15.581c-7.902,0-12.87,4.29-12.87,15.581V909.855z"/>
		<path id="XMLID_44_" style="fill:#004B47;" d="M444.001,858.151h34.772v50.125c0,25.289-12.644,39.739-37.029,39.739
			c-24.385,0-37.029-14.451-37.029-39.739v-82.187c0-25.289,12.644-39.739,37.029-39.739c24.385,0,37.029,14.45,37.029,39.739
			v15.354h-23.482v-16.934c0-11.29-4.967-15.581-12.87-15.581c-7.902,0-12.87,4.29-12.87,15.581v85.347
			c0,11.289,4.967,15.354,12.87,15.354c7.903,0,12.87-4.065,12.87-15.354v-29.126h-11.29V858.151z"/>
		<path id="XMLID_46_" style="fill:#004B47;" d="M492.774,826.088c0-25.289,13.322-39.739,37.706-39.739
			c24.385,0,37.707,14.45,37.707,39.739v82.187c0,25.289-13.322,39.739-37.707,39.739c-24.385,0-37.706-14.451-37.706-39.739
			V826.088z M517.611,909.855c0,11.289,4.967,15.579,12.87,15.579c7.903,0,12.87-4.29,12.87-15.579v-85.347
			c0-11.29-4.967-15.581-12.87-15.581c-7.902,0-12.87,4.29-12.87,15.581V909.855z"/>
		<path id="XMLID_49_" style="fill:#00A664;" d="M611.993,788.156h76.768v22.578h-25.965v135.473h-24.837V810.735h-25.965V788.156z"
			/>
		<path id="XMLID_51_" style="fill:#00A664;" d="M724.435,854.764h34.094v22.578h-34.094v46.287h42.9v22.578h-67.737V788.156h67.737
			v22.578h-42.9V854.764z"/>
		<path id="XMLID_53_" style="fill:#00A664;" d="M865.556,788.156l-25.966,76.768l27.772,81.284H841.17l-20.322-62.543
			l-20.546,62.543h-23.256l27.772-81.284l-25.965-76.768h25.74l18.741,58.253l19.192-58.253H865.556z"/>
		<path id="XMLID_55_" style="fill:#00A664;" d="M872.557,788.156h76.768v22.578h-25.966v135.473h-24.836V810.735h-25.965V788.156z"
			/>
	</g>
	<g id="XMLID_6_">
		<path id="XMLID_10_" style="fill:#B2D235;" d="M248.746,1040.368v-32.109h-7.41v-6.998h7.41v-16.055h7.925v16.055h16.878v6.998
			h-16.878v31.081c0,6.484,3.602,8.85,8.954,8.85c2.676,0,4.94-0.514,7.718-1.852v6.792c-2.778,1.441-5.763,2.265-9.571,2.265
			C255.23,1055.394,248.746,1051.174,248.746,1040.368z"/>
		<path id="XMLID_12_" style="fill:#B2D235;" d="M293.823,1039.031v-0.207c0-11.422,9.262-17.392,22.744-17.392
			c6.792,0,11.526,0.926,16.26,2.264v-1.647c0-9.467-5.763-14.407-15.746-14.407c-6.278,0-11.218,1.543-16.158,3.807l-2.366-6.484
			c5.866-2.676,11.526-4.529,19.348-4.529c7.513,0,13.379,2.058,17.187,5.867c3.705,3.705,5.557,8.85,5.557,15.643v32.521h-7.822
			v-7.925c-3.705,4.734-9.777,9.057-19.142,9.057C303.703,1055.6,293.823,1049.939,293.823,1039.031z M332.931,1034.913v-4.94
			c-3.91-1.133-9.057-2.264-15.54-2.264c-9.88,0-15.54,4.322-15.54,10.702v0.206c0,6.689,6.175,10.601,13.379,10.601
			C325.007,1049.219,332.931,1043.352,332.931,1034.913z"/>
		<path id="XMLID_15_" style="fill:#B2D235;" d="M367.099,1063.73l3.602-6.175c6.072,4.426,12.865,6.792,20.48,6.792
			c11.733,0,19.348-6.484,19.348-18.937v-6.277c-4.631,6.174-11.115,11.218-20.892,11.218c-12.761,0-25.008-9.571-25.008-24.906
			v-0.206c0-15.54,12.35-25.111,25.008-25.111c9.983,0,16.466,4.94,20.789,10.704v-9.571h7.924v43.944
			c0,8.233-2.47,14.511-6.792,18.834c-4.734,4.734-11.835,7.101-20.274,7.101C382.434,1071.14,374.201,1068.67,367.099,1063.73z
			 M410.735,1025.342v-0.206c0-10.908-9.468-18.01-19.554-18.01c-10.086,0-18.422,6.999-18.422,17.907v0.206
			c0,10.704,8.542,18.113,18.422,18.113C401.267,1043.352,410.735,1036.046,410.735,1025.342z"/>
		<path id="XMLID_18_" style="fill:#B2D235;" d="M447.064,979.339h7.924v75.128h-7.924V979.339z"/>
		<path id="XMLID_20_" style="fill:#B2D235;" d="M483.906,980.883h9.057v8.749h-9.057V980.883z M484.421,1001.261h7.924v53.207
			h-7.924V1001.261z"/>
		<path id="XMLID_23_" style="fill:#B2D235;" d="M521.058,1001.261h7.924v9.262c3.5-5.763,9.057-10.394,18.216-10.394
			c12.864,0,20.377,8.645,20.377,21.303v33.036h-7.924v-31.081c0-9.88-5.352-16.055-14.717-16.055
			c-9.159,0-15.952,6.689-15.952,16.673v30.462h-7.924V1001.261z"/>
		<path id="XMLID_25_" style="fill:#B2D235;" d="M618.211,1048.808c7.306,0,12.452-2.985,16.775-7.513l4.94,4.426
			c-5.351,5.968-11.835,9.983-21.922,9.983c-14.613,0-26.551-11.218-26.551-27.787c0-15.438,10.806-27.787,25.523-27.787
			c15.745,0,24.802,12.556,24.802,28.198c0,0.721,0,1.544-0.103,2.779H599.48C600.612,1042.324,608.845,1048.808,618.211,1048.808z
			 M633.751,1024.725c-0.926-9.674-6.484-17.907-16.981-17.907c-9.16,0-16.158,7.616-17.29,17.907H633.751z"/>
		<path id="XMLID_28_" style="fill:#B2D235;" d="M707.129,979.339h7.925v31.183c3.499-5.763,9.057-10.394,18.216-10.394
			c12.864,0,20.378,8.645,20.378,21.303v33.036h-7.925v-31.081c0-9.88-5.351-16.055-14.717-16.055
			c-9.16,0-15.952,6.689-15.952,16.673v30.462h-7.925V979.339z"/>
		<path id="XMLID_30_" style="fill:#B2D235;" d="M804.282,1048.808c7.306,0,12.452-2.985,16.775-7.513l4.94,4.426
			c-5.351,5.968-11.835,9.983-21.922,9.983c-14.613,0-26.552-11.218-26.552-27.787c0-15.438,10.807-27.787,25.523-27.787
			c15.745,0,24.802,12.556,24.802,28.198c0,0.721,0,1.544-0.103,2.779h-42.196C786.683,1042.324,794.917,1048.808,804.282,1048.808z
			 M819.822,1024.725c-0.926-9.674-6.484-17.907-16.981-17.907c-9.16,0-16.158,7.616-17.29,17.907H819.822z"/>
		<path id="XMLID_33_" style="fill:#B2D235;" d="M852.035,1001.261h7.925v13.893c3.911-8.85,11.629-15.231,21.715-14.82v8.542
			h-0.617c-11.629,0-21.098,8.336-21.098,24.391v21.201h-7.925V1001.261z"/>
		<path id="XMLID_35_" style="fill:#B2D235;" d="M925.21,1048.808c7.306,0,12.452-2.985,16.775-7.513l4.94,4.426
			c-5.351,5.968-11.835,9.983-21.922,9.983c-14.613,0-26.552-11.218-26.552-27.787c0-15.438,10.807-27.787,25.523-27.787
			c15.745,0,24.802,12.556,24.802,28.198c0,0.721,0,1.544-0.103,2.779h-42.196C907.611,1042.324,915.845,1048.808,925.21,1048.808z
			 M940.75,1024.725c-0.926-9.674-6.484-17.907-16.981-17.907c-9.16,0-16.158,7.616-17.29,17.907H940.75z"/>
	</g>
</g>
</svg>
